{
  "accessors": [
    {
      "bufferView": 2,
      "componentType": 5126,
      "count": 43454,
      "max": [
        420.2597351074219,
        334.6807556152344,
        350.90631103515625
      ],
      "min": [
        -381.77978515625,
        -338.7940368652344,
        7.999989032745361
      ],
      "type": "VEC3"
    },
    {
      "bufferView": 2,
      "byteOffset": 521448,
      "componentType": 5126,
      "count": 43454,
      "max": [
        1.0,
        1.0,
        1.0
      ],
      "min": [
        -1.0,
        -1.0,
        -1.0
      ],
      "type": "VEC3"
    },
    {
      "bufferView": 3,
      "componentType": 5126,
      "count": 43454,
      "max": [
        1.0,
        1.0,
        1.0,
        1.0
      ],
      "min": [
        -1.0,
        -1.0,
        -1.0,
        -1.0
      ],
      "type": "VEC4"
    },
    {
      "bufferView": 1,
      "componentType": 5126,
      "count": 43454,
      "max": [
        1.5940419435501099,
        16.05167007446289
      ],
      "min": [
        -0.2926667034626007,
        -1.4290000200271606
      ],
      "type": "VEC2"
    },
    {
      "bufferView": 0,
      "componentType": 5125,
      "count": 73092,
      "type": "SCALAR"
    },
    {
      "bufferView": 2,
      "byteOffset": 1042896,
      "componentType": 5126,
      "count": 3860,
      "max": [
        700.148193359375,
        306.7886047363281,
        169.81979370117188
      ],
      "min": [
        -122.50003814697266,
        -326.2113952636719,
        8.0
      ],
      "type": "VEC3"
    },
    {
      "bufferView": 2,
      "byteOffset": 1089216,
      "componentType": 5126,
      "count": 3860,
      "max": [
        1.0,
        1.0,
        1.0
      ],
      "min": [
        -1.0,
        -1.0,
        -1.0
      ],
      "type": "VEC3"
    },
    {
      "bufferView": 3,
      "byteOffset": 695264,
      "componentType": 5126,
      "count": 3860,
      "max": [
        1.0,
        1.0,
        1.0,
        1.0
      ],
      "min": [
        -1.0,
        -1.0,
        -1.0,
        -1.0
      ],
      "type": "VEC4"
    },
    {
      "bufferView": 1,
      "byteOffset": 347632,
      "componentType": 5126,
      "count": 3860,
      "max": [
        0.7864583134651184,
        1.6510419845581055
      ],
      "min": [
        -0.125,
        -0.16995930671691895
      ],
      "type": "VEC2"
    },
    {
      "bufferView": 0,
      "byteOffset": 292368,
      "componentType": 5125,
      "count": 5628,
      "type": "SCALAR"
    },
    {
      "bufferView": 2,
      "byteOffset": 1135536,
      "componentType": 5126,
      "count": 2479,
      "max": [
        706.22021484375,
        334.6807556152344,
        12.0
      ],
      "min": [
        -447.77978515625,
        -338.7940368652344,
        4.0
      ],
      "type": "VEC3"
    },
    {
      "bufferView": 2,
      "byteOffset": 1165284,
      "componentType": 5126,
      "count": 2479,
      "max": [
        1.0,
        1.0,
        1.0
      ],
      "min": [
        -1.0,
        -1.0,
        -1.0
      ],
      "type": "VEC3"
    },
    {
      "bufferView": 3,
      "byteOffset": 757024,
      "componentType": 5126,
      "count": 2479,
      "max": [
        1.0,
        1.0,
        1.0,
        1.0
      ],
      "min": [
        -1.0,
        -1.0,
        -1.0,
        -1.0
      ],
      "type": "VEC4"
    },
    {
      "bufferView": 1,
      "byteOffset": 378512,
      "componentType": 5126,
      "count": 2479,
      "max": [
        9.242705345153809,
        10.361109733581543
      ],
      "min": [
        -4.600519180297852,
        -12.354169845581055
      ],
      "type": "VEC2"
    },
    {
      "bufferView": 0,
      "byteOffset": 314880,
      "componentType": 5125,
      "count": 4644,
      "type": "SCALAR"
    },
    {
      "bufferView": 2,
      "byteOffset": 1195032,
      "componentType": 5126,
      "count": 25992,
      "max": [
        370.22021484375,
        182.6573944091797,
        240.8888702392578
      ],
      "min": [
        -381.7620849609375,
        -186.7707061767578,
        154.81979370117188
      ],
      "type": "VEC3"
    },
    {
      "bufferView": 2,
      "byteOffset": 1506936,
      "componentType": 5126,
      "count": 25992,
      "max": [
        0.9542403817176819,
        1.0,
        0.9848077893257141
      ],
      "min": [
        -0.9542403817176819,
        -1.0,
        -0.9848077893257141
      ],
      "type": "VEC3"
    },
    {
      "bufferView": 0,
      "byteOffset": 333456,
      "componentType": 5125,
      "count": 77976,
      "type": "SCALAR"
    },
    {
      "bufferView": 2,
      "byteOffset": 1818840,
      "componentType": 5126,
      "count": 56252,
      "max": [
        422.2571105957031,
        336.6806945800781,
        350.90618896484375
      ],
      "min": [
        -381.40478515625,
        -340.79400634765625,
        8.0
      ],
      "type": "VEC3"
    },
    {
      "bufferView": 2,
      "byteOffset": 2493864,
      "componentType": 5126,
      "count": 56252,
      "max": [
        1.0,
        1.0,
        1.0
      ],
      "min": [
        -1.0,
        -1.0,
        -1.0
      ],
      "type": "VEC3"
    },
    {
      "bufferView": 3,
      "byteOffset": 796688,
      "componentType": 5126,
      "count": 56252,
      "max": [
        1.0,
        1.0,
        1.0,
        1.0
      ],
      "min": [
        -1.0,
        -1.0,
        -1.0,
        -1.0
      ],
      "type": "VEC4"
    },
    {
      "bufferView": 1,
      "byteOffset": 398344,
      "componentType": 5126,
      "count": 56252,
      "max": [
        1.4715420007705688,
        11.826539993286133
      ],
      "min": [
        -1.015315055847168,
        -1.2000420093536377
      ],
      "type": "VEC2"
    },
    {
      "bufferView": 0,
      "byteOffset": 645360,
      "componentType": 5125,
      "count": 114108,
      "type": "SCALAR"
    },
    {
      "bufferView": 2,
      "byteOffset": 3168888,
      "componentType": 5126,
      "count": 1578,
      "max": [
        370.2202453613281,
        326.0401916503906,
        154.81979370117188
      ],
      "min": [
        -340.9443054199219,
        -331.1473083496094,
        8.0
      ],
      "type": "VEC3"
    },
    {
      "bufferView": 2,
      "byteOffset": 3187824,
      "componentType": 5126,
      "count": 1578,
      "max": [
        1.0,
        1.0,
        1.0
      ],
      "min": [
        -1.0,
        -1.0,
        -1.0
      ],
      "type": "VEC3"
    },
    {
      "bufferView": 3,
      "byteOffset": 1696720,
      "componentType": 5126,
      "count": 1578,
      "max": [
        1.0,
        1.0,
        1.0,
        1.0
      ],
      "min": [
        -1.0,
        -1.0,
        -1.0,
        -1.0
      ],
      "type": "VEC4"
    },
    {
      "bufferView": 1,
      "byteOffset": 848360,
      "componentType": 5126,
      "count": 1578,
      "max": [
        1.7640420198440552,
        7.855338096618652
      ],
      "min": [
        -0.7270417213439941,
        -0.734041690826416
      ],
      "type": "VEC2"
    },
    {
      "bufferView": 0,
      "byteOffset": 1101792,
      "componentType": 5125,
      "count": 2376,
      "type": "SCALAR"
    },
    {
      "bufferView": 2,
      "byteOffset": 3206760,
      "componentType": 5126,
      "count": 1320,
      "max": [
        252.22021484375,
        334.6806945800781,
        346.03125
      ],
      "min": [
        -263.77978515625,
        -338.79400634765625,
        108.0
      ],
      "type": "VEC3"
    },
    {
      "bufferView": 0,
      "byteOffset": 1111296,
      "componentType": 5125,
      "count": 2160,
      "type": "SCALAR"
    },
    {
      "bufferView": 2,
      "byteOffset": 3222600,
      "componentType": 5126,
      "count": 3496,
      "max": [
        419.2942810058594,
        334.6807861328125,
        350.90631103515625
      ],
      "min": [
        -381.77978515625,
        -338.7940368652344,
        12.0
      ],
      "type": "VEC3"
    },
    {
      "bufferView": 2,
      "byteOffset": 3264552,
      "componentType": 5126,
      "count": 3496,
      "max": [
        1.0,
        1.0,
        1.0
      ],
      "min": [
        -1.0,
        -1.0,
        -1.0
      ],
      "type": "VEC3"
    },
    {
      "bufferView": 3,
      "byteOffset": 1721968,
      "componentType": 5126,
      "count": 3496,
      "max": [
        1.0,
        1.0,
        2.995981412823312e-05,
        1.0
      ],
      "min": [
        -3.479040129476861e-16,
        -1.0,
        -2.9959976018290035e-05,
        -1.0
      ],
      "type": "VEC4"
    },
    {
      "bufferView": 1,
      "byteOffset": 860984,
      "componentType": 5126,
      "count": 3496,
      "max": [
        7.015361785888672,
        5.913268089294434
      ],
      "min": [
        -0.32899999618530273,
        -0.27950000762939453
      ],
      "type": "VEC2"
    },
    {
      "bufferView": 0,
      "byteOffset": 1119936,
      "componentType": 5125,
      "count": 5880,
      "type": "SCALAR"
    },
    {
      "bufferView": 2,
      "byteOffset": 3306504,
      "componentType": 5126,
      "count": 4,
      "max": [
        370.22021484375,
        172.75167846679688,
        12.0
      ],
      "min": [
        370.22021484375,
        134.75167846679688,
        8.0
      ],
      "type": "VEC3"
    },
    {
      "bufferView": 0,
      "byteOffset": 1143456,
      "componentType": 5125,
      "count": 6,
      "type": "SCALAR"
    },
    {
      "bufferView": 2,
      "byteOffset": 3306552,
      "componentType": 5126,
      "count": 192,
      "max": [
        415.3285217285156,
        74.5972900390625,
        90.8820571899414
      ],
      "min": [
        -380.15478515625,
        -318.5912170410156,
        31.7968807220459
      ],
      "type": "VEC3"
    },
    {
      "bufferView": 2,
      "byteOffset": 3308856,
      "componentType": 5126,
      "count": 192,
      "max": [
        1.0,
        0.9659258127212524,
        1.0
      ],
      "min": [
        -1.0,
        -0.9659258127212524,
        -1.0
      ],
      "type": "VEC3"
    },
    {
      "bufferView": 1,
      "byteOffset": 888952,
      "componentType": 5126,
      "count": 192,
      "max": [
        0.4848474860191345,
        0.6127402186393738
      ],
      "min": [
        -0.029650460928678513,
        -0.43365049362182617
      ],
      "type": "VEC2"
    },
    {
      "bufferView": 0,
      "byteOffset": 1143480,
      "componentType": 5125,
      "count": 288,
      "type": "SCALAR"
    },
    {
      "bufferView": 2,
      "byteOffset": 3311160,
      "componentType": 5126,
      "count": 132,
      "max": [
        185.72024536132813,
        225.2412109375,
        332.99334716796875
      ],
      "min": [
        -197.27980041503906,
        -5.306643962860107,
        146.5575408935547
      ],
      "type": "VEC3"
    },
    {
      "bufferView": 2,
      "byteOffset": 3312744,
      "componentType": 5126,
      "count": 132,
      "max": [
        1.0472911117314009e-19,
        0.9396926164627075,
        0.9848077893257141
      ],
      "min": [
        -1.784202111497279e-18,
        -1.0,
        -0.9848077893257141
      ],
      "type": "VEC3"
    },
    {
      "bufferView": 0,
      "byteOffset": 1144632,
      "componentType": 5125,
      "count": 396,
      "type": "SCALAR"
    },
    {
      "bufferView": 2,
      "byteOffset": 3314328,
      "componentType": 5126,
      "count": 132,
      "max": [
        185.72024536132813,
        225.2412109375,
        332.99334716796875
      ],
      "min": [
        -197.27980041503906,
        -5.306643962860107,
        146.5575408935547
      ],
      "type": "VEC3"
    },
    {
      "bufferView": 2,
      "byteOffset": 3315912,
      "componentType": 5126,
      "count": 132,
      "max": [
        1.784202111497279e-18,
        1.0,
        0.9848077893257141
      ],
      "min": [
        -1.0472911117314009e-19,
        -0.9396926164627075,
        -0.9848077893257141
      ],
      "type": "VEC3"
    },
    {
      "bufferView": 0,
      "byteOffset": 1146216,
      "componentType": 5125,
      "count": 396,
      "type": "SCALAR"
    }
  ],
  "asset": {
    "extras": {
      "author": "jimbogies (https://sketchfab.com/jimbogies)",
      "license": "CC-BY-4.0 (http://creativecommons.org/licenses/by/4.0/)",
      "source": "https://sketchfab.com/3d-models/empty-warehouse-building-baa5e3a6c4994f4b931ad1992a0e53b1",
      "title": "Empty Warehouse Building"
    },
    "generator": "Sketchfab-13.11.0",
    "version": "2.0"
  },
  "bufferViews": [
    {
      "buffer": 0,
      "byteLength": 1147800,
      "name": "floatBufferViews",
      "target": 34963
    },
    {
      "buffer": 0,
      "byteLength": 890488,
      "byteOffset": 1147800,
      "byteStride": 8,
      "name": "floatBufferViews",
      "target": 34962
    },
    {
      "buffer": 0,
      "byteLength": 3317496,
      "byteOffset": 2038288,
      "byteStride": 12,
      "name": "floatBufferViews",
      "target": 34962
    },
    {
      "buffer": 0,
      "byteLength": 1777904,
      "byteOffset": 5355784,
      "byteStride": 16,
      "name": "floatBufferViews",
      "target": 34962
    }
  ],
  "buffers": [
    {
      "byteLength": 7133688,
      "uri": "scene.bin"
    }
  ],
  "images": [
    {
      "uri": "textures/Metal21-basecolor_baseColor.jpeg"
    },
    {
      "uri": "textures/Metal21-basecolor_metallicRoughness.png"
    },
    {
      "uri": "textures/Metal21-basecolor_normal.png"
    },
    {
      "uri": "textures/Metal_baseColor.jpeg"
    },
    {
      "uri": "textures/Metal_metallicRoughness.png"
    },
    {
      "uri": "textures/Metal_normal.png"
    },
    {
      "uri": "textures/Concrete12-basecolor_baseColor.jpeg"
    },
    {
      "uri": "textures/Concrete12-basecolor_metallicRoughness.png"
    },
    {
      "uri": "textures/Concrete12-basecolor_normal.png"
    },
    {
      "uri": "textures/Metal20-basecolor_baseColor.jpeg"
    },
    {
      "uri": "textures/Metal20-basecolor_metallicRoughness.png"
    },
    {
      "uri": "textures/Metal20-basecolor_normal.png"
    },
    {
      "uri": "textures/Metal06_baseColor.jpeg"
    },
    {
      "uri": "textures/Metal06_metallicRoughness.png"
    },
    {
      "uri": "textures/Metal06_normal.png"
    },
    {
      "uri": "textures/Roof_baseColor.jpeg"
    },
    {
      "uri": "textures/Roof_metallicRoughness.png"
    },
    {
      "uri": "textures/Roof_normal.png"
    },
    {
      "uri": "textures/Glass_baseColor.jpeg"
    },
    {
      "uri": "textures/Glass_metallicRoughness.png"
    }
  ],
  "materials": [
    {
      "name": "Metal21-basecolor",
      "normalTexture": {
        "index": 2
      },
      "pbrMetallicRoughness": {
        "baseColorTexture": {
          "index": 0
        },
        "metallicRoughnessTexture": {
          "index": 1
        }
      }
    },
    {
      "name": "Metal",
      "normalTexture": {
        "index": 5
      },
      "pbrMetallicRoughness": {
        "baseColorTexture": {
          "index": 3
        },
        "metallicFactor": 0.0,
        "metallicRoughnessTexture": {
          "index": 4
        }
      }
    },
    {
      "name": "Concrete12-basecolor",
      "normalTexture": {
        "index": 8,
        "scale": 0.0167619558
      },
      "pbrMetallicRoughness": {
        "baseColorTexture": {
          "index": 6
        },
        "metallicFactor": 0.0,
        "metallicRoughnessTexture": {
          "index": 7
        },
        "roughnessFactor": 0.8700978898
      }
    },
    {
      "name": "Pipe",
      "pbrMetallicRoughness": {
        "baseColorFactor": [
          0.8928293248917687,
          0.8928293248917687,
          0.8928293248917687,
          1.0
        ],
        "metallicFactor": 0.35809632943643255,
        "roughnessFactor": 0.5714303129304774
      }
    },
    {
      "name": "Metal20-basecolor",
      "normalTexture": {
        "index": 11
      },
      "pbrMetallicRoughness": {
        "baseColorTexture": {
          "index": 9
        },
        "metallicFactor": 0.4312394095,
        "metallicRoughnessTexture": {
          "index": 10
        }
      }
    },
    {
      "name": "Metal06",
      "normalTexture": {
        "index": 14
      },
      "pbrMetallicRoughness": {
        "baseColorTexture": {
          "index": 12
        },
        "metallicFactor": 0.0,
        "metallicRoughnessTexture": {
          "index": 13
        },
        "roughnessFactor": 0.7725737831
      }
    },
    {
      "name": "edge_color000255",
      "pbrMetallicRoughness": {
        "metallicFactor": 0.0,
        "roughnessFactor": 0.6
      }
    },
    {
      "name": "Roof",
      "normalTexture": {
        "index": 17
      },
      "pbrMetallicRoughness": {
        "baseColorTexture": {
          "index": 15
        },
        "metallicFactor": 0.0,
        "metallicRoughnessTexture": {
          "index": 16
        }
      }
    },
    {
      "name": "edge_color5050255255",
      "pbrMetallicRoughness": {
        "metallicFactor": 0.0,
        "roughnessFactor": 0.6
      }
    },
    {
      "name": "Glass",
      "pbrMetallicRoughness": {
        "baseColorTexture": {
          "index": 18
        },
        "metallicFactor": 0.9615267398910168,
        "metallicRoughnessTexture": {
          "index": 19
        },
        "roughnessFactor": 0.7725737830820055
      }
    },
    {
      "emissiveFactor": [
        0.6552400921602808,
        0.6552400921602808,
        0.6552400921602808
      ],
      "name": "light",
      "pbrMetallicRoughness": {
        "baseColorFactor": [
          1.0,
          0.870588,
          0.678431,
          1.0
        ],
        "metallicFactor": 0.0,
        "roughnessFactor": 0.6
      }
    },
    {
      "name": "material",
      "pbrMetallicRoughness": {
        "baseColorFactor": [
          0.643137,
          0.698039,
          0.733333,
          1.0
        ],
        "metallicFactor": 0.0,
        "roughnessFactor": 0.6
      }
    }
  ],
  "meshes": [
    {
      "name": "Material2",
      "primitives": [
        {
          "attributes": {
            "NORMAL": 1,
            "POSITION": 0,
            "TANGENT": 2,
            "TEXCOORD_0": 3
          },
          "indices": 4,
          "material": 0,
          "mode": 4
        }
      ]
    },
    {
      "name": "Material2",
      "primitives": [
        {
          "attributes": {
            "NORMAL": 6,
            "POSITION": 5,
            "TANGENT": 7,
            "TEXCOORD_0": 8
          },
          "indices": 9,
          "material": 1,
          "mode": 4
        }
      ]
    },
    {
      "name": "Material2",
      "primitives": [
        {
          "attributes": {
            "NORMAL": 11,
            "POSITION": 10,
            "TANGENT": 12,
            "TEXCOORD_0": 13
          },
          "indices": 14,
          "material": 2,
          "mode": 4
        }
      ]
    },
    {
      "name": "Material2",
      "primitives": [
        {
          "attributes": {
            "NORMAL": 16,
            "POSITION": 15
          },
          "indices": 17,
          "material": 3,
          "mode": 4
        }
      ]
    },
    {
      "name": "Material2",
      "primitives": [
        {
          "attributes": {
            "NORMAL": 19,
            "POSITION": 18,
            "TANGENT": 20,
            "TEXCOORD_0": 21
          },
          "indices": 22,
          "material": 4,
          "mode": 4
        }
      ]
    },
    {
      "name": "Material2",
      "primitives": [
        {
          "attributes": {
            "NORMAL": 24,
            "POSITION": 23,
            "TANGENT": 25,
            "TEXCOORD_0": 26
          },
          "indices": 27,
          "material": 5,
          "mode": 4
        }
      ]
    },
    {
      "name": "Material2",
      "primitives": [
        {
          "attributes": {
            "POSITION": 28
          },
          "indices": 29,
          "material": 6,
          "mode": 1
        }
      ]
    },
    {
      "name": "Material2",
      "primitives": [
        {
          "attributes": {
            "NORMAL": 31,
            "POSITION": 30,
            "TANGENT": 32,
            "TEXCOORD_0": 33
          },
          "indices": 34,
          "material": 7,
          "mode": 4
        }
      ]
    },
    {
      "name": "Material2",
      "primitives": [
        {
          "attributes": {
            "POSITION": 35
          },
          "indices": 36,
          "material": 8,
          "mode": 1
        }
      ]
    },
    {
      "name": "Material2",
      "primitives": [
        {
          "attributes": {
            "NORMAL": 38,
            "POSITION": 37,
            "TEXCOORD_0": 39
          },
          "indices": 40,
          "material": 9,
          "mode": 4
        }
      ]
    },
    {
      "name": "Material2",
      "primitives": [
        {
          "attributes": {
            "NORMAL": 42,
            "POSITION": 41
          },
          "indices": 43,
          "material": 10,
          "mode": 4
        }
      ]
    },
    {
      "name": "Material3",
      "primitives": [
        {
          "attributes": {
            "NORMAL": 45,
            "POSITION": 44
          },
          "indices": 46,
          "material": 11,
          "mode": 4
        }
      ]
    }
  ],
  "nodes": [
    {
      "children": [
        1
      ],
      "matrix": [
        1.0,
        0.0,
        0.0,
        0.0,
        0.0,
        2.220446049250313e-16,
        -1.0,
        0.0,
        0.0,
        1.0,
        2.220446049250313e-16,
        0.0,
        0.0,
        0.0,
        0.0,
        1.0
      ],
      "name": "Sketchfab_model"
    },
    {
      "children": [
        2,
        3,
        4,
        5,
        6,
        7,
        8,
        9,
        10,
        11,
        12,
        13,
        14
      ],
      "name": "Collada visual scene group"
    },
    {
      "mesh": 0,
      "name": "Material2"
    },
    {
      "mesh": 1,
      "name": "Material2"
    },
    {
      "mesh": 2,
      "name": "Material2"
    },
    {
      "mesh": 3,
      "name": "Material2"
    },
    {
      "mesh": 4,
      "name": "Material2"
    },
    {
      "mesh": 5,
      "name": "Material2"
    },
    {
      "mesh": 6,
      "name": "Material2"
    },
    {
      "mesh": 7,
      "name": "Material2"
    },
    {
      "mesh": 8,
      "name": "Material2"
    },
    {
      "mesh": 9,
      "name": "Material2"
    },
    {
      "mesh": 10,
      "name": "Material2"
    },
    {
      "mesh": 11,
      "name": "Material3"
    },
    {
      "children": [
        15
      ],
      "name": "SketchUp"
    },
    {
      "children": [
        16
      ],
      "matrix": [
        -0.06824554,
        -0.9976686,
        1.084202e-19,
        0.0,
        0.01362626,
        -0.0009321045,
        0.9999067,
        0.0,
        -0.9975755,
        0.06823917,
        0.0136581,
        0.0,
        -138.6585,
        5.885052,
        109.7745,
        1.0
      ],
      "name": "skp_camera_Last_Saved_SketchUp_View"
    },
    {
      "name": "ID1"
    }
  ],
  "samplers": [
    {
      "magFilter": 9729,
      "minFilter": 9987,
      "wrapS": 10497,
      "wrapT": 10497
    }
  ],
  "scene": 0,
  "scenes": [
    {
      "name": "Sketchfab_Scene",
      "nodes": [
        0
      ]
    }
  ],
  "textures": [
    {
      "sampler": 0,
      "source": 0
    },
    {
      "sampler": 0,
      "source": 1
    },
    {
      "sampler": 0,
      "source": 2
    },
    {
      "sampler": 0,
      "source": 3
    },
    {
      "sampler": 0,
      "source": 4
    },
    {
      "sampler": 0,
      "source": 5
    },
    {
      "sampler": 0,
      "source": 6
    },
    {
      "sampler": 0,
      "source": 7
    },
    {
      "sampler": 0,
      "source": 8
    },
    {
      "sampler": 0,
      "source": 9
    },
    {
      "sampler": 0,
      "source": 10
    },
    {
      "sampler": 0,
      "source": 11
    },
    {
      "sampler": 0,
      "source": 12
    },
    {
      "sampler": 0,
      "source": 13
    },
    {
      "sampler": 0,
      "source": 14
    },
    {
      "sampler": 0,
      "source": 15
    },
    {
      "sampler": 0,
      "source": 16
    },
    {
      "sampler": 0,
      "source": 17
    },
    {
      "sampler": 0,
      "source": 18
    },
    {
      "sampler": 0,
      "source": 19
    }
  ]
}
